<svg xmlns="http://www.w3.org/2000/svg" xmlns:xlink="http://www.w3.org/1999/xlink" version="1.1" x="0px" y="0px" viewBox="0 0 100 125" style="enable-background:new 0 0 100 100;" xml:space="preserve"><path d="M53.75,5C42.731,5,32.373,9.291,24.582,17.082l-7.5,7.5C9.291,32.373,5,42.731,5,53.75s4.291,21.377,12.082,29.168  S35.231,95,46.25,95s21.377-4.291,29.168-12.082l7.5-7.5C90.709,67.627,95,57.269,95,46.25s-4.291-21.377-12.082-29.168  S64.769,5,53.75,5z M71.883,79.383c-14.135,14.133-37.131,14.133-51.266,0c-14.134-14.134-14.134-37.132,0-51.266  c7.067-7.066,16.35-10.601,25.633-10.601s18.565,3.534,25.633,10.601C86.017,42.251,86.017,65.249,71.883,79.383z M86.858,60.994  c0.417-2.369,0.642-4.788,0.642-7.244c0-11.019-4.291-21.377-12.082-29.168S57.269,12.5,46.25,12.5  c-2.455,0-4.875,0.225-7.243,0.642c4.68-2.078,9.71-3.126,14.743-3.126c9.283,0,18.565,3.534,25.633,10.601  C90.281,31.516,92.767,47.682,86.858,60.994z"/><path d="M46.25,22.5c-6.484,0-12.512,1.986-17.51,5.38c-0.086,0.051-0.166,0.113-0.246,0.175C20.349,33.701,15,43.11,15,53.75  C15,70.981,29.019,85,46.25,85c10.641,0,20.052-5.35,25.698-13.497c0.061-0.079,0.121-0.157,0.172-0.241  C75.514,66.263,77.5,60.234,77.5,53.75C77.5,36.519,63.481,22.5,46.25,22.5z M46.25,80C31.775,80,20,68.225,20,53.75  c0-4.236,1.015-8.238,2.805-11.784c-0.194,1.412-0.305,2.841-0.305,4.284c0,17.231,14.019,31.25,31.25,31.25  c1.443,0,2.872-0.111,4.284-0.305C54.488,78.985,50.486,80,46.25,80z M68.171,68.166C63.882,70.995,58.911,72.5,53.75,72.5  c-14.475,0-26.25-11.775-26.25-26.25c0-5.161,1.505-10.132,4.334-14.421c4.141-2.732,9.095-4.329,14.416-4.329  c14.475,0,26.25,11.775,26.25,26.25C72.5,59.072,70.904,64.026,68.171,68.166z"/><text x="0" y="115" fill="#000000" font-size="5px" font-weight="bold" font-family="'Helvetica Neue', Helvetica, Arial-Unicode, Arial, Sans-serif">Created by Arthur Shlain</text><text x="0" y="120" fill="#000000" font-size="5px" font-weight="bold" font-family="'Helvetica Neue', Helvetica, Arial-Unicode, Arial, Sans-serif">from the Noun Project</text></svg>