<svg xmlns="http://www.w3.org/2000/svg" xmlns:xlink="http://www.w3.org/1999/xlink" version="1.1" x="0px" y="0px" viewBox="0 0 100 125" enable-background="new 0 0 100 100" xml:space="preserve"><g><path d="M83.7,26.3C83.7,26.3,83.7,26.3,83.7,26.3c0-0.1-0.1-0.2-0.1-0.2L83.5,26c0-0.1-0.1-0.1-0.2-0.2l-0.1-0.1l-0.1-0.1   l-15.7-11c-0.5-0.4-1.3-0.4-1.8,0l-15,10.2L36.1,14.5c-0.5-0.4-1.3-0.4-1.8,0l-15.7,11c-0.1,0-0.1,0.1-0.2,0.1c0,0-0.1,0-0.1,0.1   c-0.1,0.1-0.2,0.3-0.3,0.4v0.1c-0.1,0.2-0.1,0.4-0.1,0.6v50.3c0,0.5,0.3,1,0.7,1.3l15.7,11h0.1l0.1,0.1h0.1   c0.2,0.1,0.4,0.2,0.7,0.2s0.4-0.1,0.7-0.2h0.1c0,0,0.1,0,0.1-0.1h0.1L51.1,79l14.8,10.4H66l0.1,0.1h0.1c0.2,0.1,0.4,0.2,0.7,0.2   c0.2,0,0.4-0.1,0.7-0.2h0.1c0,0,0.1,0,0.1-0.1h0.1l15.7-11c0,0,0.1-0.1,0.1-0.1V26.3z M21.1,29.9l11.3,7.9l-11.3,7.9V29.9z    M33.6,85l-12.5-8.7V51.9l7.9,5.5l4.6,3.2V85z M65,85.1l-12.5-8.7V51.9L65,60.7V85.1z M65.6,39.1l13.8,9.7l-12.2,8.6l-0.7,0.5   L51.8,47.5h-0.1c0,0-0.1,0-0.1-0.1h-0.1c0,0-0.1,0-0.1-0.1h-0.1c-0.1,0-0.1,0-0.2,0c-0.1,0-0.1,0-0.2,0c0,0,0,0-0.1,0   c-0.1,0,0,0-0.1,0s-0.1,0-0.2,0c-0.1,0-0.1,0-0.2,0h-0.1c0,0-0.1,0-0.1,0.1H50c0,0-0.1,0-0.1,0.1h-0.1L35.2,57.9l-0.7-0.5   l-12.2-8.6l13.8-9.7c0.4-0.3,0.7-0.8,0.7-1.3s-0.3-1-0.7-1.3l-13.8-9.7l12.9-9L49.7,28c0.5,0.4,1.3,0.4,1.8,0l15-10.2l12.9,9   l-13.8,9.7c-0.4,0.3-0.7,0.8-0.7,1.3S65.2,38.8,65.6,39.1z"/></g><text x="0" y="115" fill="#000000" font-size="5px" font-weight="bold" font-family="'Helvetica Neue', Helvetica, Arial-Unicode, Arial, Sans-serif">Created by Chris Munroe</text><text x="0" y="120" fill="#000000" font-size="5px" font-weight="bold" font-family="'Helvetica Neue', Helvetica, Arial-Unicode, Arial, Sans-serif">from the Noun Project</text></svg>